<?xml version="1.0" encoding="UTF-8" standalone="no"?><!DOCTYPE svg PUBLIC "-//W3C//DTD SVG 1.1//EN" "http://www.w3.org/Graphics/SVG/1.1/DTD/svg11.dtd"><svg width="100%" height="100%" viewBox="0 0 64 64" version="1.1" xmlns="http://www.w3.org/2000/svg" xmlns:xlink="http://www.w3.org/1999/xlink" xml:space="preserve" xmlns:serif="http://www.serif.com/" style="fill-rule:evenodd;clip-rule:evenodd;stroke-linejoin:round;stroke-miterlimit:2;"><path id="Mail" d="M58.003,8l-52.006,0c-3.314,0 -6,2.686 -6,6l-0,36c-0,3.314 2.686,6 6,6l52.006,0c3.314,0 6,-2.686 6,-6l0,-36c0,-3.314 -2.686,-6 -6,-6Zm4,41.111l-18.918,-18.919l18.918,-12.056l0,30.975Zm-56.006,-39.111l52.006,0c2.206,0 4,1.794 4,4l0,1.766l-27.535,17.547c-1.49,0.95 -3.394,0.92 -4.85,-0.07l-27.621,-18.774l-0,-0.469c-0,-2.206 1.794,-4 4,-4Zm-4,6.885l19.185,13.04l-19.185,19.186l-0,-32.226Zm56.006,37.115l-52.006,-0c-1.648,-0 -3.064,-1.002 -3.677,-2.428l20.52,-20.52l5.655,3.844c1.086,0.738 2.342,1.108 3.6,1.108c1.195,-0 2.392,-0.334 3.446,-1.005l5.842,-3.723l20.297,20.296c-0.613,1.426 -2.029,2.428 -3.677,2.428Z" style="fill:#fff;fill-rule:nonzero;stroke:#fff;stroke-width:2.09px;"/></svg>