<?xml version="1.0" encoding="UTF-8" standalone="no"?><!DOCTYPE svg PUBLIC "-//W3C//DTD SVG 1.1//EN" "http://www.w3.org/Graphics/SVG/1.1/DTD/svg11.dtd"><svg width="100%" height="100%" viewBox="0 0 472 352" version="1.1" xmlns="http://www.w3.org/2000/svg" xmlns:xlink="http://www.w3.org/1999/xlink" xml:space="preserve" xmlns:serif="http://www.serif.com/" style="fill-rule:evenodd;clip-rule:evenodd;stroke-linejoin:round;stroke-miterlimit:2;"><path d="M125,61.185l0,-48l13.185,-13.185l77.63,-0l13.185,13.185l0,48l14,-0l0,-48l13.185,-13.185l77.63,-0l13.185,13.185l0,48l14,-0l0,-48l13.185,-13.185l77.63,-0l13.185,13.185l0,48l7,-0l0,289.941l-472,-0l0,-289.941l7,-0l0,-48l13.185,-13.185l77.63,-0l13.185,13.185l0,48l14,-0Z" style="fill:#713f12;"/></svg>