<?xml version="1.0" encoding="UTF-8" standalone="no"?><!DOCTYPE svg PUBLIC "-//W3C//DTD SVG 1.1//EN" "http://www.w3.org/Graphics/SVG/1.1/DTD/svg11.dtd"><svg width="100%" height="100%" viewBox="0 0 32 32" version="1.1" xmlns="http://www.w3.org/2000/svg" xmlns:xlink="http://www.w3.org/1999/xlink" xml:space="preserve" xmlns:serif="http://www.serif.com/" style="fill-rule:evenodd;clip-rule:evenodd;stroke-linejoin:round;stroke-miterlimit:2;"><g><g><path d="M25.013,19.703c-0.636,-0.66 -1.402,-1.014 -2.215,-1.014c-0.806,0 -1.579,0.347 -2.241,1.008l-2.07,2.061c-0.171,-0.092 -0.341,-0.177 -0.505,-0.262c-0.236,-0.118 -0.458,-0.229 -0.648,-0.347c-1.94,-1.23 -3.702,-2.833 -5.393,-4.907c-0.819,-1.033 -1.369,-1.904 -1.769,-2.787c0.537,-0.491 1.035,-1.001 1.52,-1.492c0.184,-0.183 0.367,-0.373 0.55,-0.556c1.376,-1.374 1.376,-3.153 0,-4.527l-1.788,-1.787c-0.203,-0.202 -0.413,-0.412 -0.61,-0.621c-0.393,-0.406 -0.806,-0.825 -1.232,-1.217c-0.635,-0.628 -1.395,-0.962 -2.195,-0.962c-0.799,0 -1.572,0.334 -2.227,0.962c-0.007,0.006 -0.007,0.006 -0.013,0.013l-2.228,2.244c-0.839,0.838 -1.317,1.858 -1.422,3.043c-0.157,1.91 0.406,3.69 0.839,4.854c1.061,2.859 2.647,5.509 5.012,8.349c2.87,3.422 6.323,6.124 10.268,8.028c1.507,0.713 3.518,1.557 5.766,1.701c0.137,0.006 0.281,0.013 0.412,0.013c1.514,-0 2.785,-0.543 3.781,-1.623c0.007,-0.013 0.02,-0.019 0.026,-0.032c0.341,-0.413 0.734,-0.785 1.147,-1.185c0.282,-0.268 0.57,-0.549 0.852,-0.844c0.648,-0.673 0.989,-1.459 0.989,-2.263c0,-0.812 -0.347,-1.59 -1.009,-2.245l-3.597,-3.605Zm2.346,6.89c-0.007,-0 -0.007,0.006 -0,-0c-0.256,0.275 -0.518,0.523 -0.8,0.798c-0.426,0.406 -0.858,0.831 -1.264,1.309c-0.662,0.706 -1.442,1.04 -2.464,1.04c-0.098,-0 -0.203,-0 -0.301,-0.007c-1.946,-0.124 -3.755,-0.883 -5.111,-1.531c-3.709,-1.792 -6.965,-4.337 -9.671,-7.563c-2.235,-2.689 -3.729,-5.175 -4.718,-7.845c-0.609,-1.629 -0.832,-2.898 -0.734,-4.096c0.066,-0.765 0.36,-1.4 0.904,-1.943l2.235,-2.231c0.321,-0.301 0.661,-0.464 0.996,-0.464c0.412,-0 0.747,0.248 0.956,0.458c0.007,0.006 0.013,0.013 0.02,0.019c0.4,0.373 0.78,0.759 1.179,1.171c0.203,0.21 0.413,0.419 0.623,0.635l1.789,1.786c0.694,0.694 0.694,1.335 -0,2.029c-0.191,0.189 -0.374,0.379 -0.564,0.562c-0.55,0.563 -1.075,1.086 -1.645,1.597c-0.013,0.013 -0.026,0.019 -0.032,0.032c-0.564,0.563 -0.459,1.113 -0.341,1.486c0.006,0.019 0.013,0.039 0.02,0.058c0.465,1.126 1.12,2.186 2.116,3.448l0.007,0.007c1.808,2.225 3.715,3.958 5.818,5.287c0.269,0.17 0.544,0.307 0.806,0.438c0.236,0.118 0.459,0.229 0.649,0.347c0.026,0.013 0.052,0.032 0.078,0.045c0.223,0.112 0.433,0.164 0.649,0.164c0.544,0 0.884,-0.34 0.996,-0.451l2.241,-2.238c0.222,-0.222 0.576,-0.491 0.989,-0.491c0.406,0 0.74,0.255 0.944,0.478l3.623,3.618c0.675,0.667 0.675,1.354 0.007,2.048Z" style="fill:#fff;fill-rule:nonzero;stroke:#fff;stroke-width:1px;"/><path d="M17.255,7.874c1.717,0.288 3.276,1.099 4.521,2.342c1.245,1.244 2.051,2.801 2.346,4.515c0.072,0.432 0.445,0.733 0.871,0.733c0.053,-0 0.098,-0.007 0.151,-0.013c0.485,-0.079 0.806,-0.537 0.727,-1.021c-0.354,-2.074 -1.336,-3.965 -2.837,-5.463c-1.5,-1.499 -3.394,-2.48 -5.471,-2.833c-0.485,-0.079 -0.937,0.242 -1.022,0.719c-0.085,0.478 0.229,0.943 0.714,1.021Z" style="fill:#fff;fill-rule:nonzero;stroke:#fff;stroke-width:1px;"/><path d="M31.487,14.175c-0.584,-3.416 -2.196,-6.523 -4.672,-8.997c-2.477,-2.473 -5.589,-4.082 -9.01,-4.665c-0.478,-0.085 -0.93,0.243 -1.015,0.72c-0.079,0.484 0.242,0.936 0.727,1.021c3.053,0.517 5.838,1.963 8.053,4.168c2.214,2.211 3.656,4.992 4.174,8.041c0.072,0.431 0.445,0.732 0.871,0.732c0.052,0 0.098,-0.006 0.151,-0.013c0.478,-0.072 0.806,-0.53 0.721,-1.007Z" style="fill:#fff;fill-rule:nonzero;stroke:#fff;stroke-width:1px;"/></g></g></svg>